# Blender 3.3.0
# www.blender.org
mtllib neon.mtl
o neon
v -0.093675 -0.026007 0.647092
v -0.057419 -0.026007 0.682605
v -0.083056 -0.026007 0.672203
v -0.082061 0.000000 0.647238
v -0.045864 0.000000 0.682605
v -0.071459 0.000000 0.672246
v -0.057419 -0.026007 -0.682605
v -0.093675 -0.026007 -0.647092
v -0.083056 -0.026007 -0.672203
v -0.045864 0.000000 -0.682605
v -0.082061 0.000000 -0.647238
v -0.071459 0.000000 -0.672246
v 0.057419 -0.026007 0.682605
v 0.093675 -0.026007 0.647092
v 0.083056 -0.026007 0.672203
v 0.045864 0.000000 0.682605
v 0.082061 0.000000 0.647238
v 0.071459 0.000000 0.672246
v 0.093675 -0.026007 -0.647092
v 0.057419 -0.026007 -0.682605
v 0.083056 -0.026007 -0.672203
v 0.082061 0.000000 -0.647238
v 0.045864 0.000000 -0.682605
v 0.071459 0.000000 -0.672246
v -0.083203 -0.054452 -0.634889
v -0.046724 -0.054452 -0.670805
v -0.072518 -0.054452 -0.660286
v -0.055021 -0.073991 -0.604991
v -0.017899 -0.073991 -0.641712
v -0.044148 -0.073991 -0.630957
v -0.071969 -0.068269 -0.622497
v -0.035098 -0.068269 -0.658927
v -0.061169 -0.068269 -0.648257
v -0.017899 -0.073991 0.641712
v -0.055021 -0.073991 0.604991
v -0.044148 -0.073991 0.630957
v -0.046724 -0.054452 0.670805
v -0.083203 -0.054452 0.634889
v -0.072518 -0.054452 0.660286
v -0.035098 -0.068269 0.658927
v -0.071969 -0.068269 0.622497
v -0.061169 -0.068269 0.648257
v 0.046724 -0.054452 -0.670805
v 0.083203 -0.054452 -0.634889
v 0.072518 -0.054452 -0.660286
v 0.017899 -0.073991 -0.641712
v 0.055021 -0.073991 -0.604991
v 0.044148 -0.073991 -0.630957
v 0.035098 -0.068269 -0.658927
v 0.071969 -0.068269 -0.622497
v 0.061169 -0.068269 -0.648257
v 0.083203 -0.054452 0.634889
v 0.046724 -0.054452 0.670805
v 0.072518 -0.054452 0.660286
v 0.055021 -0.073991 0.604991
v 0.017899 -0.073991 0.641712
v 0.044148 -0.073991 0.630957
v 0.071969 -0.068269 0.622497
v 0.035098 -0.068269 0.658927
v 0.061169 -0.068269 0.648257
v -0.098780 -0.019485 0.480348
v -0.098780 0.000506 0.480348
v -0.098780 -0.019485 0.450397
v -0.098780 0.000506 0.450397
v 0.098780 -0.019485 0.480348
v 0.098780 0.000506 0.480348
v 0.098780 -0.019485 0.450397
v 0.098780 0.000506 0.450397
v -0.098780 -0.019485 -0.480348
v -0.098780 0.000506 -0.480348
v -0.098780 -0.019485 -0.450397
v -0.098780 0.000506 -0.450397
v 0.098780 -0.019485 -0.480348
v 0.098780 0.000506 -0.480348
v 0.098780 -0.019485 -0.450397
v 0.098780 0.000506 -0.450397
vn 0.1410 0.0627 0.9880
vn -0.2379 0.1054 0.9655
vn 0.2379 0.1054 0.9655
vn -0.1979 -0.4386 -0.8766
vn 0.1569 -0.5719 -0.8051
vn -0.1569 -0.5719 -0.8051
vn -0.0855 -0.8462 -0.5259
vn 0.0855 -0.8462 -0.5259
vn 0.1979 -0.4386 0.8766
vn -0.1569 -0.5719 0.8051
vn 0.1569 -0.5719 0.8051
vn -0.0000 1.0000 -0.0000
vn -0.1410 0.0627 -0.9880
vn 0.2379 0.1054 -0.9655
vn -0.2379 0.1054 -0.9655
vn 0.8842 -0.4161 0.2124
vn 0.8174 -0.5530 -0.1616
vn 0.8842 -0.4161 -0.2124
vn -0.0179 -0.9866 0.1624
vn 0.0855 -0.8462 0.5259
vn -0.0855 -0.8462 0.5259
vn 0.8962 0.3994 -0.1930
vn 0.8997 0.4008 0.1729
vn 0.8997 0.4008 -0.1729
vn 0.0179 -0.9866 -0.1624
vn 0.1014 -0.9896 0.1019
vn -0.1646 -0.9862 0.0182
vn -0.5367 -0.8393 -0.0866
vn -0.1646 -0.9862 -0.0182
vn -0.5367 -0.8393 0.0866
vn -0.8174 -0.5530 -0.1616
vn 0.1646 -0.9862 -0.0182
vn 0.5367 -0.8393 0.0866
vn 0.1646 -0.9862 0.0182
vn 0.5367 -0.8393 -0.0866
vn 0.8174 -0.5530 0.1616
vn -0.8962 0.3994 0.1930
vn -0.8997 0.4008 -0.1729
vn -0.8997 0.4008 0.1729
vn -0.6175 0.2744 0.7371
vn -0.7086 0.3146 0.6316
vn -0.6175 0.2744 -0.7371
vn -0.7086 0.3147 -0.6316
vn -0.8962 0.3994 -0.1930
vn 0.7086 0.3146 -0.6316
vn 0.6175 0.2744 -0.7371
vn 0.1410 0.0627 -0.9880
vn 0.6175 0.2744 0.7371
vn 0.7086 0.3147 0.6316
vn 0.8962 0.3994 0.1930
vn -0.1014 -0.9896 -0.1019
vn -0.3471 -0.8712 -0.3471
vn -0.1014 -0.9896 0.1019
vn -0.5553 -0.6169 -0.5577
vn -0.3471 -0.8712 0.3471
vn -0.8174 -0.5530 0.1616
vn 0.1014 -0.9896 -0.1019
vn 0.3471 -0.8712 -0.3471
vn 0.5553 -0.6169 -0.5577
vn 0.3471 -0.8712 0.3471
vn 0.5553 -0.6169 0.5577
vn -0.1979 -0.4386 0.8766
vn -0.5553 -0.6169 0.5577
vn -0.8842 -0.4161 0.2124
vn -0.6094 -0.4877 -0.6252
vn -0.8842 -0.4161 -0.2124
vn 0.6094 -0.4877 -0.6252
vn 0.1979 -0.4386 -0.8766
vn -1.0000 -0.0000 -0.0000
vn -0.0000 -0.0000 -1.0000
vn 1.0000 -0.0000 -0.0000
vn -0.0000 -0.0000 1.0000
vn -0.0000 -1.0000 -0.0000
vn -0.1410 0.0627 0.9880
vn 0.0179 -0.9866 0.1624
vn -0.0179 -0.9866 -0.1624
vn -0.6094 -0.4877 0.6252
vn 0.6094 -0.4877 0.6252
vt 0.181373 0.071235
vt 0.005456 0.891917
vt 0.216573 0.030471
vt 0.041707 0.926722
vt 0.198250 0.031065
vt 0.184236 0.053397
vt 0.018394 0.913999
vt 0.200245 0.071138
vt 0.224230 0.047704
vt 0.207270 0.054567
vt 0.205943 0.048293
vt 0.203103 0.053368
vt 0.216573 0.969529
vt 0.040617 0.029862
vt 0.181372 0.928765
vt 0.005456 0.064588
vt 0.018037 0.042658
vt 0.198250 0.968935
vt 0.184236 0.946603
vt 0.224230 0.952296
vt 0.200245 0.928862
vt 0.203103 0.946632
vt 0.207270 0.945433
vt 0.205943 0.951707
vt 0.292665 0.030471
vt 0.135919 0.925990
vt 0.327865 0.071235
vt 0.171080 0.891264
vt 0.310988 0.031065
vt 0.325002 0.053397
vt 0.158498 0.913194
vt 0.285008 0.047704
vt 0.308993 0.071138
vt 0.306134 0.053368
vt 0.301968 0.054567
vt 0.303295 0.048293
vt 0.327865 0.928765
vt 0.171080 0.063935
vt 0.292665 0.969529
vt 0.134829 0.029130
vt 0.158142 0.041853
vt 0.325002 0.946603
vt 0.310987 0.968935
vt 0.308993 0.928862
vt 0.285008 0.952296
vt 0.306134 0.946632
vt 0.301968 0.945433
vt 0.303295 0.951707
vt 0.026491 0.080523
vt 0.055070 0.053111
vt 0.036153 0.062031
vt 0.052038 0.102827
vt 0.076515 0.078022
vt 0.059013 0.085328
vt 0.039507 0.090932
vt 0.064645 0.065743
vt 0.046851 0.073208
vt 0.076198 0.877786
vt 0.052011 0.852913
vt 0.058925 0.870486
vt 0.055448 0.902445
vt 0.026304 0.875593
vt 0.036346 0.894043
vt 0.064620 0.889808
vt 0.039337 0.864955
vt 0.046875 0.882660
vt 0.121087 0.053407
vt 0.150232 0.080259
vt 0.140190 0.061809
vt 0.100337 0.078066
vt 0.124525 0.102939
vt 0.117611 0.085366
vt 0.111916 0.066044
vt 0.137198 0.090897
vt 0.129660 0.073192
vt 0.150045 0.875329
vt 0.121466 0.902741
vt 0.140382 0.893822
vt 0.124498 0.853025
vt 0.100021 0.877830
vt 0.117522 0.870524
vt 0.137028 0.864920
vt 0.111891 0.890109
vt 0.129685 0.882644
vt 0.347546 0.018436
vt 0.347546 0.005190
vt 0.334300 0.018436
vt 0.367392 0.018436
vt 0.367392 0.005190
vt 0.380638 0.018436
vt 0.347546 0.149341
vt 0.347546 0.162587
vt 0.334300 0.149341
vt 0.367392 0.149341
vt 0.380638 0.149341
vt 0.367392 0.162587
vt 0.367392 0.186213
vt 0.367392 0.172966
vt 0.380638 0.186213
vt 0.347546 0.186213
vt 0.347546 0.172966
vt 0.334300 0.186213
vt 0.367392 0.317117
vt 0.367392 0.330364
vt 0.380638 0.317117
vt 0.347546 0.317117
vt 0.334300 0.317117
vt 0.347546 0.330364
s 1
f 16/32/1 2/3/2 13/25/3
f 7/14/4 43/67/5 26/50/6
f 32/56/7 43/67/5 49/73/8
f 13/26/9 37/61/10 53/77/11
f 10/20/12 6/10/12 17/33/12
f 10/20/13 20/39/14 7/13/15
f 14/28/16 44/68/17 19/38/18
f 34/58/19 59/83/20 40/64/21
f 22/44/22 14/27/23 19/37/24
f 46/70/25 57/81/26 35/59/27
f 46/70/25 32/56/7 49/73/8
f 35/59/27 31/55/28 28/52/29
f 41/65/30 25/49/31 31/55/28
f 47/71/32 58/82/33 55/79/34
f 59/83/20 37/61/10 40/64/21
f 50/74/35 52/76/36 58/82/33
f 4/8/37 8/15/38 1/1/39
f 2/3/2 6/11/40 3/5/41
f 3/6/41 4/8/37 1/1/39
f 7/13/15 12/24/42 10/20/13
f 9/19/43 11/21/44 12/22/42
f 22/44/22 21/42/45 24/46/46
f 24/48/46 20/39/14 23/45/47
f 13/25/3 18/36/48 16/32/1
f 15/30/49 17/33/50 18/34/48
f 32/56/7 30/54/51 33/57/52
f 30/54/51 31/55/28 33/57/52
f 40/64/21 36/60/53 34/58/19
f 36/60/53 41/65/30 35/59/27
f 26/50/6 33/57/52 27/51/54
f 33/57/52 25/49/31 27/51/54
f 37/61/10 42/66/55 40/64/21
f 42/66/55 38/62/56 41/65/30
f 50/74/35 48/72/57 51/75/58
f 48/72/57 49/73/8 51/75/58
f 44/68/17 51/75/58 45/69/59
f 51/75/58 43/67/5 45/69/59
f 59/83/20 57/81/26 60/84/60
f 57/81/26 58/82/33 60/84/60
f 53/77/11 60/84/60 54/78/61
f 60/84/60 52/76/36 54/78/61
f 2/4/62 39/63/63 37/61/10
f 39/63/63 1/2/64 38/62/56
f 7/14/4 27/51/54 9/17/65
f 27/51/54 8/16/66 9/17/65
f 19/38/18 45/69/59 21/41/67
f 45/69/59 20/40/68 21/41/67
f 14/28/16 54/78/61 52/76/36
f 54/78/61 13/26/9 53/77/11
f 8/16/66 38/62/56 1/2/64
s 0
f 62/86/69 63/88/69 61/85/69
f 64/90/70 67/94/70 63/88/70
f 68/96/71 65/91/71 67/94/71
f 66/93/72 61/85/72 65/91/72
f 67/94/73 61/85/73 63/88/73
f 71/100/69 70/98/69 69/97/69
f 75/106/72 72/102/72 71/100/72
f 73/103/71 76/108/71 75/106/71
f 69/97/70 74/105/70 73/103/70
f 69/97/73 75/106/73 71/100/73
s 1
f 16/32/1 5/9/74 2/3/2
f 7/14/4 20/40/68 43/67/5
f 32/56/7 26/50/6 43/67/5
f 13/26/9 2/4/62 37/61/10
f 17/33/12 22/44/12 24/47/12
f 24/47/12 23/45/12 10/20/12
f 10/20/12 12/23/12 11/21/12
f 11/21/12 4/8/12 6/10/12
f 6/10/12 5/9/12 16/32/12
f 16/32/12 18/35/12 17/33/12
f 17/33/12 24/47/12 10/20/12
f 10/20/12 11/21/12 6/10/12
f 6/10/12 16/32/12 17/33/12
f 10/20/13 23/45/47 20/39/14
f 14/28/16 52/76/36 44/68/17
f 34/58/19 56/80/75 59/83/20
f 22/44/22 17/33/50 14/27/23
f 35/59/27 28/52/29 30/54/51
f 30/54/51 29/53/76 46/70/25
f 46/70/25 48/72/57 47/71/32
f 47/71/32 55/79/34 57/81/26
f 57/81/26 56/80/75 34/58/19
f 34/58/19 36/60/53 35/59/27
f 35/59/27 30/54/51 46/70/25
f 46/70/25 47/71/32 57/81/26
f 57/81/26 34/58/19 35/59/27
f 46/70/25 29/53/76 32/56/7
f 35/59/27 41/65/30 31/55/28
f 41/65/30 38/62/56 25/49/31
f 47/71/32 50/74/35 58/82/33
f 59/83/20 53/77/11 37/61/10
f 50/74/35 44/68/17 52/76/36
f 4/8/37 11/21/44 8/15/38
f 2/3/2 5/9/74 6/11/40
f 3/6/41 6/12/40 4/8/37
f 7/13/15 9/18/43 12/24/42
f 9/19/43 8/15/38 11/21/44
f 22/44/22 19/37/24 21/42/45
f 24/48/46 21/43/45 20/39/14
f 13/25/3 15/29/49 18/36/48
f 15/30/49 14/27/23 17/33/50
f 32/56/7 29/53/76 30/54/51
f 30/54/51 28/52/29 31/55/28
f 40/64/21 42/66/55 36/60/53
f 36/60/53 42/66/55 41/65/30
f 26/50/6 32/56/7 33/57/52
f 33/57/52 31/55/28 25/49/31
f 37/61/10 39/63/63 42/66/55
f 42/66/55 39/63/63 38/62/56
f 50/74/35 47/71/32 48/72/57
f 48/72/57 46/70/25 49/73/8
f 44/68/17 50/74/35 51/75/58
f 51/75/58 49/73/8 43/67/5
f 59/83/20 56/80/75 57/81/26
f 57/81/26 55/79/34 58/82/33
f 53/77/11 59/83/20 60/84/60
f 60/84/60 58/82/33 52/76/36
f 2/4/62 3/7/77 39/63/63
f 39/63/63 3/7/77 1/2/64
f 7/14/4 26/50/6 27/51/54
f 27/51/54 25/49/31 8/16/66
f 19/38/18 44/68/17 45/69/59
f 45/69/59 43/67/5 20/40/68
f 14/28/16 15/31/78 54/78/61
f 54/78/61 15/31/78 13/26/9
f 8/16/66 25/49/31 38/62/56
s 0
f 62/86/69 64/89/69 63/88/69
f 64/90/70 68/95/70 67/94/70
f 68/96/71 66/92/71 65/91/71
f 66/93/72 62/87/72 61/85/72
f 67/94/73 65/91/73 61/85/73
f 71/100/69 72/101/69 70/98/69
f 75/106/72 76/107/72 72/102/72
f 73/103/71 74/104/71 76/108/71
f 69/97/70 70/99/70 74/105/70
f 69/97/73 73/103/73 75/106/73
