# Blender 3.4.1
# www.blender.org
mtllib solLavomatic.mtl
o sol
v -3.000000 0.000000 3.000000
v 3.000000 0.000000 3.000000
v -3.000000 0.000000 -3.000000
v 3.000000 0.000000 -3.000000
v -3.000000 0.000000 -2.538462
v -3.000000 0.000000 -2.076923
v -3.000000 0.000000 -1.615385
v -3.000000 0.000000 -1.153846
v -3.000000 0.000000 -0.692308
v -3.000000 0.000000 -0.230769
v -3.000000 0.000000 0.230769
v -3.000000 0.000000 0.692308
v -3.000000 0.000000 1.153846
v -3.000000 0.000000 1.615385
v -3.000000 0.000000 2.076923
v -3.000000 0.000000 2.538462
v -2.538462 0.000000 3.000000
v -2.076923 0.000000 3.000000
v -1.615385 0.000000 3.000000
v -1.153846 0.000000 3.000000
v -0.692308 0.000000 3.000000
v -0.230769 0.000000 3.000000
v 0.230769 0.000000 3.000000
v 0.692308 0.000000 3.000000
v 1.153846 0.000000 3.000000
v 1.615385 0.000000 3.000000
v 2.076923 0.000000 3.000000
v 2.538462 0.000000 3.000000
v 3.000000 0.000000 2.538462
v 3.000000 0.000000 2.076923
v 3.000000 0.000000 1.615385
v 3.000000 0.000000 1.153846
v 3.000000 0.000000 0.692308
v 3.000000 0.000000 0.230769
v 3.000000 0.000000 -0.230769
v 3.000000 0.000000 -0.692308
v 3.000000 0.000000 -1.153846
v 3.000000 0.000000 -1.615385
v 3.000000 0.000000 -2.076923
v 3.000000 0.000000 -2.538462
v 2.538462 0.000000 -3.000000
v 2.076923 0.000000 -3.000000
v 1.615385 0.000000 -3.000000
v 1.153846 0.000000 -3.000000
v 0.692308 0.000000 -3.000000
v 0.230769 0.000000 -3.000000
v -0.230769 0.000000 -3.000000
v -0.692308 0.000000 -3.000000
v -1.153846 0.000000 -3.000000
v -1.615385 0.000000 -3.000000
v -2.076923 0.000000 -3.000000
v -2.538462 0.000000 -3.000000
v -2.538462 0.000000 2.538462
v -2.538462 0.000000 2.076923
v -2.538462 0.000000 1.615385
v -2.538462 0.000000 1.153846
v -2.538462 0.000000 0.692308
v -2.538462 0.000000 0.230769
v -2.538462 0.000000 -0.230769
v -2.538462 0.000000 -0.692308
v -2.538462 0.000000 -1.153846
v -2.538462 0.000000 -1.615385
v -2.538462 0.000000 -2.076923
v -2.538462 0.000000 -2.538462
v -2.076923 0.000000 2.538462
v -2.076923 0.000000 2.076923
v -2.076923 0.000000 1.615385
v -2.076923 0.000000 1.153846
v -2.076923 0.000000 0.692308
v -2.076923 0.000000 0.230769
v -2.076923 0.000000 -0.230769
v -2.076923 0.000000 -0.692308
v -2.076923 0.000000 -1.153846
v -2.076923 0.000000 -1.615385
v -2.076923 0.000000 -2.076923
v -2.076923 0.000000 -2.538462
v -1.615385 0.000000 2.538462
v -1.615385 0.000000 2.076923
v -1.615385 0.000000 1.615385
v -1.615385 0.000000 1.153846
v -1.615385 0.000000 0.692308
v -1.615385 0.000000 0.230769
v -1.615385 0.000000 -0.230769
v -1.615385 0.000000 -0.692308
v -1.615385 0.000000 -1.153846
v -1.615385 0.000000 -1.615385
v -1.615385 0.000000 -2.076923
v -1.615385 0.000000 -2.538462
v -1.153846 0.000000 2.538462
v -1.153846 0.000000 2.076923
v -1.153846 0.000000 1.615385
v -1.153846 0.000000 1.153846
v -1.153846 0.000000 0.692308
v -1.153846 0.000000 0.230769
v -1.153846 0.000000 -0.230769
v -1.153846 0.000000 -0.692308
v -1.153846 0.000000 -1.153846
v -1.153846 0.000000 -1.615385
v -1.153846 0.000000 -2.076923
v -1.153846 0.000000 -2.538462
v -0.692308 0.000000 2.538462
v -0.692308 0.000000 2.076923
v -0.692308 0.000000 1.615385
v -0.692308 0.000000 1.153846
v -0.692308 0.000000 0.692308
v -0.692308 0.000000 0.230769
v -0.692308 0.000000 -0.230769
v -0.692308 0.000000 -0.692308
v -0.692308 0.000000 -1.153846
v -0.692308 0.000000 -1.615385
v -0.692308 0.000000 -2.076923
v -0.692308 0.000000 -2.538462
v -0.230769 0.000000 2.538462
v -0.230769 0.000000 2.076923
v -0.230769 0.000000 1.615385
v -0.230769 0.000000 1.153846
v -0.230769 0.000000 0.692308
v -0.230769 0.000000 0.230769
v -0.230769 0.000000 -0.230769
v -0.230769 0.000000 -0.692308
v -0.230769 0.000000 -1.153846
v -0.230769 0.000000 -1.615385
v -0.230769 0.000000 -2.076923
v -0.230769 0.000000 -2.538462
v 0.230769 0.000000 2.538462
v 0.230769 0.000000 2.076923
v 0.230769 0.000000 1.615385
v 0.230769 0.000000 1.153846
v 0.230769 0.000000 0.692308
v 0.230769 0.000000 0.230769
v 0.230769 0.000000 -0.230769
v 0.230769 0.000000 -0.692308
v 0.230769 0.000000 -1.153846
v 0.230769 0.000000 -1.615385
v 0.230769 0.000000 -2.076923
v 0.230769 0.000000 -2.538462
v 0.692308 0.000000 2.538462
v 0.692308 0.000000 2.076923
v 0.692308 0.000000 1.615385
v 0.692308 0.000000 1.153846
v 0.692308 0.000000 0.692308
v 0.692308 0.000000 0.230769
v 0.692308 0.000000 -0.230769
v 0.692308 0.000000 -0.692308
v 0.692308 0.000000 -1.153846
v 0.692308 0.000000 -1.615385
v 0.692308 0.000000 -2.076923
v 0.692308 0.000000 -2.538462
v 1.153846 0.000000 2.538462
v 1.153846 0.000000 2.076923
v 1.153846 0.000000 1.615385
v 1.153846 0.000000 1.153846
v 1.153846 0.000000 0.692308
v 1.153846 0.000000 0.230769
v 1.153846 0.000000 -0.230769
v 1.153846 0.000000 -0.692308
v 1.153846 0.000000 -1.153846
v 1.153846 0.000000 -1.615385
v 1.153846 0.000000 -2.076923
v 1.153846 0.000000 -2.538462
v 1.615385 0.000000 2.538462
v 1.615385 0.000000 2.076923
v 1.615385 0.000000 1.615385
v 1.615385 0.000000 1.153846
v 1.615385 0.000000 0.692308
v 1.615385 0.000000 0.230769
v 1.615385 0.000000 -0.230769
v 1.615385 0.000000 -0.692308
v 1.615385 0.000000 -1.153846
v 1.615385 0.000000 -1.615385
v 1.615385 0.000000 -2.076923
v 1.615385 0.000000 -2.538462
v 2.076923 0.000000 2.538462
v 2.076923 0.000000 2.076923
v 2.076923 0.000000 1.615385
v 2.076923 0.000000 1.153846
v 2.076923 0.000000 0.692308
v 2.076923 0.000000 0.230769
v 2.076923 0.000000 -0.230769
v 2.076923 0.000000 -0.692308
v 2.076923 0.000000 -1.153846
v 2.076923 0.000000 -1.615385
v 2.076923 0.000000 -2.076923
v 2.076923 0.000000 -2.538462
v 2.538462 0.000000 2.538462
v 2.538462 0.000000 2.076923
v 2.538462 0.000000 1.615385
v 2.538462 0.000000 1.153846
v 2.538462 0.000000 0.692308
v 2.538462 0.000000 0.230769
v 2.538462 0.000000 -0.230769
v 2.538462 0.000000 -0.692308
v 2.538462 0.000000 -1.153846
v 2.538462 0.000000 -1.615385
v 2.538462 0.000000 -2.076923
v 2.538462 0.000000 -2.538462
vn -0.0000 1.0000 -0.0000
vt -0.999260 1.998645
vt 2.248598 -1.249213
vt 2.248598 1.998645
vt 2.248598 1.998645
vt 1.998763 1.998645
vt -0.749424 -1.249213
vt -0.499589 -1.249213
vt -0.999260 1.498974
vt -0.999260 1.249139
vt -0.999260 0.999304
vt 0.249916 -1.249213
vt -0.999260 0.749469
vt -0.999260 0.499634
vt 0.499752 -1.249213
vt -0.999260 0.249798
vt 0.249916 1.998645
vt -0.999260 -0.000037
vt -0.999260 -0.249872
vt 0.000081 1.998645
vt -0.999260 -0.499707
vt 1.499092 -1.249213
vt 1.748927 -1.249213
vt -0.999260 -0.749542
vt -0.999260 -0.999378
vt -0.749425 1.998645
vt -0.749425 -1.249213
vt -0.999260 1.748810
vt -0.499589 -1.249213
vt -0.249754 -1.249213
vt 0.000081 -1.249213
vt 0.249916 -1.249213
vt 0.499752 -1.249213
vt 0.749587 -1.249213
vt -0.999260 -0.000037
vt 0.999422 -1.249213
vt 2.248598 0.999304
vt -0.999260 -0.249872
vt 1.499092 -1.249213
vt 2.248598 1.249139
vt 1.748927 -1.249213
vt 1.998763 -1.249213
vt 2.248598 -0.999378
vt 2.248598 -0.749542
vt 2.248598 -0.499707
vt 2.248598 -0.249872
vt 2.248598 -0.000037
vt 2.248598 0.249798
vt 2.248598 0.499634
vt 0.749587 -1.249213
vt 0.999422 -1.249213
vt 2.248598 0.749469
vt 2.248598 0.999304
vt 2.248598 1.249139
vt -0.249754 1.998645
vt -0.499589 1.998645
vt 2.248598 1.498974
vt 2.248598 1.748809
vt 1.998763 1.998645
vt -0.999260 1.498974
vt 1.748927 1.998645
vt 1.499092 1.998645
vt -0.999260 1.249139
vt 1.249257 1.998645
vt 0.999422 1.998645
vt 0.749587 1.998645
vt 0.499752 1.998645
vt 0.249916 1.998645
vt -0.999260 -0.249872
vt 0.000081 1.998645
vt -0.249754 1.998645
vt -0.999260 -0.499707
vt -0.499589 1.998645
vt 2.248598 1.748810
vt -0.749425 1.998645
vt -0.749425 1.748810
vt -0.749425 -0.999378
vt 1.748928 -0.999378
vt -0.749425 -0.749542
vt 1.499092 -0.999378
vt -0.749425 -0.499707
vt 1.249257 -0.999378
vt 0.000081 1.748810
vt -0.749425 -0.249872
vt 0.249916 1.748810
vt -0.749425 -0.000037
vt 0.999422 -0.999378
vt -0.749425 0.249798
vt 0.499751 -0.999378
vt -0.749425 0.499634
vt 0.999422 1.748810
vt 0.249916 -0.999378
vt -0.749425 0.749469
vt -0.749425 0.999304
vt 1.249257 1.748810
vt -0.749425 1.249139
vt -0.499589 -0.999378
vt -0.749425 1.498974
vt 1.998763 1.748810
vt -0.749424 -0.999378
vt -0.749425 1.748809
vt -0.499589 -0.999378
vt -0.499589 -0.749542
vt -0.499589 -0.499707
vt 1.249257 -0.749542
vt -0.499589 -0.249872
vt 0.999422 -0.749542
vt -0.499589 -0.000037
vt -0.499589 0.249798
vt -0.499589 0.499634
vt 0.999422 1.498974
vt -0.499589 0.749469
vt 1.249257 1.498974
vt -0.499589 0.999304
vt -0.499589 1.249139
vt -0.499589 1.498974
vt -0.499589 1.748809
vt -0.749425 1.249139
vt -0.249754 -0.999378
vt -0.249754 -0.749542
vt -0.499589 1.249139
vt -0.249754 -0.499707
vt -0.249754 -0.249872
vt -0.249754 -0.000037
vt -0.249754 0.249798
vt -0.249754 0.499634
vt -0.249754 0.749469
vt -0.249754 0.999304
vt 1.499093 1.249139
vt -0.249754 1.249139
vt -0.249754 1.498974
vt 1.748927 1.249139
vt -0.749424 -0.499707
vt -0.249754 1.748809
vt -0.749425 0.999304
vt 0.000081 -0.999378
vt -0.499589 0.999304
vt 0.000081 -0.749542
vt 0.000081 -0.499707
vt 0.000081 -0.249872
vt 0.000081 -0.000037
vt 0.000081 0.249798
vt 0.749587 0.999304
vt 0.000081 0.499634
vt 0.249916 -0.249872
vt 0.000081 0.749469
vt 0.999422 0.999304
vt 0.000081 0.999304
vt 0.000081 -0.249872
vt 1.499092 0.999304
vt 0.000081 1.249139
vt 1.748927 0.999304
vt 0.000081 1.498974
vt -0.749424 -0.249872
vt 0.000081 1.748809
vt 1.998763 -0.000037
vt 0.249916 -0.999378
vt 0.249916 -0.749542
vt 1.748927 -0.000037
vt 0.249916 -0.499707
vt 0.249916 -0.249872
vt 0.999422 -0.000037
vt 0.249916 -0.000037
vt 0.249916 0.249798
vt 0.749587 -0.000037
vt 0.749587 0.749469
vt 0.249916 0.499634
vt 0.999422 0.749469
vt 0.249916 -0.000037
vt 0.249916 0.749469
vt 0.000081 -0.000037
vt 0.249916 0.999304
vt 0.249916 1.249139
vt 0.249916 1.498974
vt 0.249916 1.748809
vt 1.998763 0.249798
vt 0.499752 -0.999378
vt 1.748927 0.249798
vt 0.499752 -0.749542
vt -0.249754 0.499634
vt 0.499752 -0.499707
vt 0.499752 -0.249872
vt 0.000081 0.499634
vt 0.999422 0.249798
vt 0.499752 -0.000037
vt 0.749587 0.249798
vt 0.499752 0.249798
vt 0.499752 0.499634
vt 0.499752 0.749469
vt 0.499752 0.999304
vt -0.249754 0.249798
vt 0.499752 1.249139
vt 1.748927 0.499634
vt 0.499751 1.498974
vt -0.499589 0.249798
vt 0.499752 1.748809
vt 1.998763 0.499634
vt 0.749587 -0.999378
vt 0.749587 -0.749542
vt -0.249754 0.249798
vt 0.749587 -0.499707
vt 0.000081 0.249798
vt 0.749587 -0.249872
vt 0.749587 -0.000037
vt 0.749587 0.249798
vt 0.749587 0.499634
vt 0.749587 0.749469
vt 0.749587 0.999304
vt -0.249754 0.499634
vt 0.749587 1.249139
vt -0.499589 0.499634
vt 1.748927 0.249798
vt 0.749587 1.498974
vt 1.998763 0.249798
vt 0.749587 1.748809
vt 0.999422 -0.999378
vt -0.749425 -0.000037
vt 0.999422 -0.749542
vt 0.999422 -0.499707
vt 0.999422 -0.249872
vt 0.249916 -0.000037
vt 0.999422 -0.000037
vt 0.999422 0.249798
vt 0.499752 -0.000037
vt 0.999422 0.499634
vt 0.999422 0.749469
vt 0.999422 0.999304
vt 0.999422 1.249139
vt 0.999422 1.498974
vt 0.999422 1.748809
vt -0.749425 -0.249872
vt 1.249257 -0.999378
vt 1.998763 0.999304
vt 1.249257 -0.749542
vt 1.499092 0.999304
vt 1.249257 -0.499707
vt 1.249257 -0.249872
vt 1.249257 0.999304
vt 0.249916 -0.249872
vt 1.249257 -0.000037
vt 0.499752 -0.249872
vt 1.249257 0.249798
vt 0.499751 0.999304
vt 1.249257 0.499634
vt 1.249257 0.749469
vt 0.249916 0.999304
vt 1.249257 0.999304
vt 1.249257 1.249139
vt 1.748927 -0.249872
vt 1.249257 1.498974
vt 1.249257 1.748809
vt 1.998763 -0.249872
vt 1.998763 1.249139
vt 1.499092 -0.999378
vt 1.499092 -0.749542
vt 1.499092 1.249139
vt 1.499092 -0.499707
vt 1.249257 1.249139
vt 1.499092 -0.249872
vt 1.499092 -0.000037
vt 1.499092 0.249798
vt 0.499751 1.249139
vt 1.499092 0.499634
vt 0.249916 1.249139
vt 1.499092 0.749469
vt 1.499092 0.999304
vt 1.499092 -0.499707
vt 1.499092 1.249139
vt 1.499092 1.498974
vt 1.748927 -0.499707
vt -0.749424 1.249139
vt 1.998763 -0.499707
vt 1.499092 1.748809
vt -0.749425 -0.749542
vt 1.748927 -0.999378
vt 1.748927 -0.749542
vt -0.499589 -0.749542
vt 1.748927 -0.499707
vt 1.748927 -0.249872
vt 0.999422 1.498974
vt 1.748927 -0.000037
vt 1.748927 0.249798
vt 0.749587 1.498974
vt 1.748927 0.499634
vt 1.748927 0.749469
vt 1.748927 0.999304
vt 1.499092 -0.749542
vt 1.748927 1.249139
vt 1.748927 -0.749542
vt 1.748927 1.498974
vt -0.749424 1.498974
vt 1.748927 1.748809
vt -0.749425 -0.999377
vt 1.998763 -0.999378
vt -0.499589 -0.999378
vt 1.998763 -0.749542
vt 1.998762 -0.499707
vt 1.998762 -0.249872
vt 0.999422 1.748809
vt 1.998762 -0.000037
vt 0.749587 1.748810
vt 1.998763 0.249798
vt 0.749587 -0.999377
vt 1.998763 0.499634
vt 1.998763 0.749469
vt 0.999422 -0.999378
vt 1.998763 0.999304
vt -0.249754 1.748810
vt 1.998763 1.249139
vt 1.998762 1.498974
vt -0.499589 1.748809
vt 1.998762 1.748809
s 0
f 40/57/1 41/58/1 196/311/1
f 64/98/1 3/3/1 5/5/1
f 76/116/1 52/74/1 64/100/1
f 88/133/1 51/72/1 76/116/1
f 100/153/1 50/71/1 88/132/1
f 112/174/1 49/69/1 100/154/1
f 124/195/1 48/67/1 112/174/1
f 136/214/1 47/66/1 124/195/1
f 148/229/1 46/65/1 136/214/1
f 160/250/1 45/64/1 148/229/1
f 172/272/1 44/63/1 160/250/1
f 184/290/1 43/62/1 172/270/1
f 196/311/1 42/60/1 184/291/1
f 17/27/1 16/25/1 1/1/1
f 53/76/1 15/23/1 16/24/1
f 54/77/1 14/21/1 15/22/1
f 55/80/1 13/18/1 14/20/1
f 13/19/1 57/84/1 12/16/1
f 57/85/1 11/15/1 12/17/1
f 11/15/1 59/89/1 10/13/1
f 59/88/1 9/11/1 10/14/1
f 9/12/1 61/93/1 8/10/1
f 61/93/1 7/9/1 8/10/1
f 62/95/1 6/8/1 7/9/1
f 63/96/1 5/6/1 6/7/1
f 18/28/1 53/76/1 17/26/1
f 65/101/1 54/78/1 53/76/1
f 66/102/1 55/80/1 54/78/1
f 67/103/1 56/83/1 55/80/1
f 68/104/1 57/86/1 56/81/1
f 69/107/1 58/87/1 57/85/1
f 70/108/1 59/89/1 58/87/1
f 71/109/1 60/92/1 59/89/1
f 72/110/1 61/94/1 60/90/1
f 73/113/1 62/95/1 61/93/1
f 74/114/1 63/97/1 62/95/1
f 75/115/1 64/100/1 63/97/1
f 19/29/1 65/101/1 18/28/1
f 77/118/1 66/102/1 65/101/1
f 78/119/1 67/103/1 66/102/1
f 79/121/1 68/105/1 67/103/1
f 80/122/1 69/107/1 68/105/1
f 81/123/1 70/108/1 69/107/1
f 82/124/1 71/109/1 70/108/1
f 83/125/1 72/111/1 71/109/1
f 84/126/1 73/113/1 72/111/1
f 85/127/1 74/114/1 73/113/1
f 86/129/1 75/115/1 74/114/1
f 87/130/1 76/116/1 75/115/1
f 20/30/1 77/118/1 19/29/1
f 89/134/1 78/120/1 77/117/1
f 90/137/1 79/121/1 78/119/1
f 91/138/1 80/122/1 79/121/1
f 92/139/1 81/123/1 80/122/1
f 93/140/1 82/124/1 81/123/1
f 94/141/1 83/125/1 82/124/1
f 95/143/1 84/126/1 83/125/1
f 96/145/1 85/127/1 84/126/1
f 97/147/1 86/129/1 85/127/1
f 98/149/1 87/131/1 86/128/1
f 99/152/1 88/133/1 87/130/1
f 21/31/1 89/135/1 20/30/1
f 101/156/1 90/137/1 89/135/1
f 102/157/1 91/138/1 90/137/1
f 103/159/1 92/139/1 91/138/1
f 104/160/1 93/140/1 92/139/1
f 105/162/1 94/141/1 93/140/1
f 106/163/1 95/143/1 94/141/1
f 107/165/1 96/146/1 95/142/1
f 108/168/1 97/148/1 96/144/1
f 109/171/1 98/150/1 97/147/1
f 110/172/1 99/152/1 98/150/1
f 111/173/1 100/154/1 99/152/1
f 22/32/1 101/156/1 21/31/1
f 113/175/1 102/158/1 101/155/1
f 114/178/1 103/159/1 102/157/1
f 115/180/1 104/160/1 103/159/1
f 116/181/1 105/162/1 104/160/1
f 117/183/1 106/164/1 105/161/1
f 118/186/1 107/166/1 106/163/1
f 119/187/1 108/169/1 107/166/1
f 120/188/1 109/171/1 108/169/1
f 121/189/1 110/172/1 109/171/1
f 122/191/1 111/173/1 110/172/1
f 123/193/1 112/174/1 111/173/1
f 23/33/1 113/176/1 22/32/1
f 125/197/1 114/178/1 113/176/1
f 126/198/1 115/180/1 114/178/1
f 127/199/1 116/182/1 115/179/1
f 128/202/1 117/184/1 116/181/1
f 129/203/1 118/186/1 117/184/1
f 130/204/1 119/187/1 118/186/1
f 119/187/1 132/206/1 120/188/1
f 132/206/1 121/189/1 120/188/1
f 133/207/1 122/191/1 121/189/1
f 134/208/1 123/194/1 122/190/1
f 135/211/1 124/196/1 123/192/1
f 24/35/1 125/197/1 23/33/1
f 137/215/1 126/198/1 125/197/1
f 138/217/1 127/200/1 126/198/1
f 139/218/1 128/202/1 127/200/1
f 140/219/1 129/203/1 128/202/1
f 141/221/1 130/204/1 129/203/1
f 142/222/1 131/205/1 130/204/1
f 143/224/1 132/206/1 131/205/1
f 144/225/1 133/207/1 132/206/1
f 145/226/1 134/209/1 133/207/1
f 146/227/1 135/212/1 134/209/1
f 147/228/1 136/214/1 135/212/1
f 25/37/1 137/216/1 24/34/1
f 149/231/1 138/217/1 137/215/1
f 150/233/1 139/218/1 138/217/1
f 151/235/1 140/219/1 139/218/1
f 152/236/1 141/221/1 140/219/1
f 153/238/1 142/223/1 141/220/1
f 154/241/1 143/224/1 142/222/1
f 155/243/1 144/225/1 143/224/1
f 156/244/1 145/226/1 144/225/1
f 157/246/1 146/227/1 145/226/1
f 158/247/1 147/228/1 146/227/1
f 159/249/1 148/229/1 147/228/1
f 26/39/1 149/232/1 25/36/1
f 161/253/1 150/233/1 149/231/1
f 162/254/1 151/235/1 150/233/1
f 163/255/1 152/237/1 151/234/1
f 164/258/1 153/239/1 152/236/1
f 165/259/1 154/241/1 153/239/1
f 166/260/1 155/243/1 154/241/1
f 167/261/1 156/245/1 155/242/1
f 168/264/1 157/246/1 156/244/1
f 169/265/1 158/247/1 157/246/1
f 170/267/1 159/249/1 158/247/1
f 171/269/1 160/251/1 159/248/1
f 27/40/1 161/253/1 26/38/1
f 173/274/1 162/254/1 161/253/1
f 174/275/1 163/256/1 162/254/1
f 175/277/1 164/258/1 163/256/1
f 176/278/1 165/259/1 164/258/1
f 177/280/1 166/260/1 165/259/1
f 178/281/1 167/262/1 166/260/1
f 179/283/1 168/264/1 167/262/1
f 180/284/1 169/265/1 168/264/1
f 181/285/1 170/267/1 169/265/1
f 182/286/1 171/269/1 170/266/1
f 183/289/1 172/272/1 171/268/1
f 28/41/1 173/274/1 27/40/1
f 185/292/1 174/276/1 173/273/1
f 186/295/1 175/277/1 174/275/1
f 187/296/1 176/278/1 175/277/1
f 188/297/1 177/280/1 176/278/1
f 189/298/1 178/282/1 177/279/1
f 190/301/1 179/283/1 178/281/1
f 191/303/1 180/284/1 179/283/1
f 192/304/1 181/285/1 180/284/1
f 193/306/1 182/287/1 181/285/1
f 194/308/1 183/289/1 182/287/1
f 195/309/1 184/291/1 183/289/1
f 2/2/1 185/293/1 28/41/1
f 29/42/1 186/295/1 185/293/1
f 30/43/1 187/296/1 186/295/1
f 31/44/1 188/297/1 187/296/1
f 32/45/1 189/299/1 188/297/1
f 33/46/1 190/301/1 189/299/1
f 34/47/1 191/303/1 190/301/1
f 35/49/1 192/305/1 191/302/1
f 36/51/1 193/306/1 192/304/1
f 37/52/1 194/308/1 193/306/1
f 38/54/1 195/310/1 194/307/1
f 39/56/1 196/311/1 195/309/1
f 40/57/1 4/4/1 41/58/1
f 64/98/1 52/73/1 3/3/1
f 76/116/1 51/72/1 52/74/1
f 88/133/1 50/70/1 51/72/1
f 100/153/1 49/68/1 50/71/1
f 112/174/1 48/67/1 49/69/1
f 124/195/1 47/66/1 48/67/1
f 136/214/1 46/65/1 47/66/1
f 148/229/1 45/64/1 46/65/1
f 160/250/1 44/63/1 45/64/1
f 172/272/1 43/61/1 44/63/1
f 184/290/1 42/59/1 43/62/1
f 196/311/1 41/58/1 42/60/1
f 17/27/1 53/75/1 16/25/1
f 53/76/1 54/78/1 15/23/1
f 54/77/1 55/79/1 14/21/1
f 55/80/1 56/83/1 13/18/1
f 13/19/1 56/82/1 57/84/1
f 57/85/1 58/87/1 11/15/1
f 11/15/1 58/87/1 59/89/1
f 59/88/1 60/91/1 9/11/1
f 9/12/1 60/92/1 61/93/1
f 61/93/1 62/95/1 7/9/1
f 62/95/1 63/97/1 6/8/1
f 63/96/1 64/99/1 5/6/1
f 18/28/1 65/101/1 53/76/1
f 65/101/1 66/102/1 54/78/1
f 66/102/1 67/103/1 55/80/1
f 67/103/1 68/105/1 56/83/1
f 68/104/1 69/106/1 57/86/1
f 69/107/1 70/108/1 58/87/1
f 70/108/1 71/109/1 59/89/1
f 71/109/1 72/111/1 60/92/1
f 72/110/1 73/112/1 61/94/1
f 73/113/1 74/114/1 62/95/1
f 74/114/1 75/115/1 63/97/1
f 75/115/1 76/116/1 64/100/1
f 19/29/1 77/118/1 65/101/1
f 77/118/1 78/119/1 66/102/1
f 78/119/1 79/121/1 67/103/1
f 79/121/1 80/122/1 68/105/1
f 80/122/1 81/123/1 69/107/1
f 81/123/1 82/124/1 70/108/1
f 82/124/1 83/125/1 71/109/1
f 83/125/1 84/126/1 72/111/1
f 84/126/1 85/127/1 73/113/1
f 85/127/1 86/129/1 74/114/1
f 86/129/1 87/130/1 75/115/1
f 87/130/1 88/133/1 76/116/1
f 20/30/1 89/135/1 77/118/1
f 89/134/1 90/136/1 78/120/1
f 90/137/1 91/138/1 79/121/1
f 91/138/1 92/139/1 80/122/1
f 92/139/1 93/140/1 81/123/1
f 93/140/1 94/141/1 82/124/1
f 94/141/1 95/143/1 83/125/1
f 95/143/1 96/145/1 84/126/1
f 96/145/1 97/147/1 85/127/1
f 97/147/1 98/150/1 86/129/1
f 98/149/1 99/151/1 87/131/1
f 99/152/1 100/154/1 88/133/1
f 21/31/1 101/156/1 89/135/1
f 101/156/1 102/157/1 90/137/1
f 102/157/1 103/159/1 91/138/1
f 103/159/1 104/160/1 92/139/1
f 104/160/1 105/162/1 93/140/1
f 105/162/1 106/163/1 94/141/1
f 106/163/1 107/166/1 95/143/1
f 107/165/1 108/167/1 96/146/1
f 108/168/1 109/170/1 97/148/1
f 109/171/1 110/172/1 98/150/1
f 110/172/1 111/173/1 99/152/1
f 111/173/1 112/174/1 100/154/1
f 22/32/1 113/176/1 101/156/1
f 113/175/1 114/177/1 102/158/1
f 114/178/1 115/180/1 103/159/1
f 115/180/1 116/181/1 104/160/1
f 116/181/1 117/184/1 105/162/1
f 117/183/1 118/185/1 106/164/1
f 118/186/1 119/187/1 107/166/1
f 119/187/1 120/188/1 108/169/1
f 120/188/1 121/189/1 109/171/1
f 121/189/1 122/191/1 110/172/1
f 122/191/1 123/193/1 111/173/1
f 123/193/1 124/195/1 112/174/1
f 23/33/1 125/197/1 113/176/1
f 125/197/1 126/198/1 114/178/1
f 126/198/1 127/200/1 115/180/1
f 127/199/1 128/201/1 116/182/1
f 128/202/1 129/203/1 117/184/1
f 129/203/1 130/204/1 118/186/1
f 130/204/1 131/205/1 119/187/1
f 119/187/1 131/205/1 132/206/1
f 132/206/1 133/207/1 121/189/1
f 133/207/1 134/209/1 122/191/1
f 134/208/1 135/210/1 123/194/1
f 135/211/1 136/213/1 124/196/1
f 24/35/1 137/215/1 125/197/1
f 137/215/1 138/217/1 126/198/1
f 138/217/1 139/218/1 127/200/1
f 139/218/1 140/219/1 128/202/1
f 140/219/1 141/221/1 129/203/1
f 141/221/1 142/222/1 130/204/1
f 142/222/1 143/224/1 131/205/1
f 143/224/1 144/225/1 132/206/1
f 144/225/1 145/226/1 133/207/1
f 145/226/1 146/227/1 134/209/1
f 146/227/1 147/228/1 135/212/1
f 147/228/1 148/229/1 136/214/1
f 25/37/1 149/230/1 137/216/1
f 149/231/1 150/233/1 138/217/1
f 150/233/1 151/235/1 139/218/1
f 151/235/1 152/236/1 140/219/1
f 152/236/1 153/239/1 141/221/1
f 153/238/1 154/240/1 142/223/1
f 154/241/1 155/243/1 143/224/1
f 155/243/1 156/244/1 144/225/1
f 156/244/1 157/246/1 145/226/1
f 157/246/1 158/247/1 146/227/1
f 158/247/1 159/249/1 147/228/1
f 159/249/1 160/250/1 148/229/1
f 26/39/1 161/252/1 149/232/1
f 161/253/1 162/254/1 150/233/1
f 162/254/1 163/256/1 151/235/1
f 163/255/1 164/257/1 152/237/1
f 164/258/1 165/259/1 153/239/1
f 165/259/1 166/260/1 154/241/1
f 166/260/1 167/262/1 155/243/1
f 167/261/1 168/263/1 156/245/1
f 168/264/1 169/265/1 157/246/1
f 169/265/1 170/267/1 158/247/1
f 170/267/1 171/268/1 159/249/1
f 171/269/1 172/271/1 160/251/1
f 27/40/1 173/274/1 161/253/1
f 173/274/1 174/275/1 162/254/1
f 174/275/1 175/277/1 163/256/1
f 175/277/1 176/278/1 164/258/1
f 176/278/1 177/280/1 165/259/1
f 177/280/1 178/281/1 166/260/1
f 178/281/1 179/283/1 167/262/1
f 179/283/1 180/284/1 168/264/1
f 180/284/1 181/285/1 169/265/1
f 181/285/1 182/287/1 170/267/1
f 182/286/1 183/288/1 171/269/1
f 183/289/1 184/291/1 172/272/1
f 28/41/1 185/293/1 173/274/1
f 185/292/1 186/294/1 174/276/1
f 186/295/1 187/296/1 175/277/1
f 187/296/1 188/297/1 176/278/1
f 188/297/1 189/299/1 177/280/1
f 189/298/1 190/300/1 178/282/1
f 190/301/1 191/303/1 179/283/1
f 191/303/1 192/304/1 180/284/1
f 192/304/1 193/306/1 181/285/1
f 193/306/1 194/308/1 182/287/1
f 194/308/1 195/309/1 183/289/1
f 195/309/1 196/311/1 184/291/1
f 2/2/1 29/42/1 185/293/1
f 29/42/1 30/43/1 186/295/1
f 30/43/1 31/44/1 187/296/1
f 31/44/1 32/45/1 188/297/1
f 32/45/1 33/46/1 189/299/1
f 33/46/1 34/47/1 190/301/1
f 34/47/1 35/48/1 191/303/1
f 35/49/1 36/50/1 192/305/1
f 36/51/1 37/52/1 193/306/1
f 37/52/1 38/53/1 194/308/1
f 38/54/1 39/55/1 195/310/1
f 39/56/1 40/57/1 196/311/1
